<svg fill="none" height="14" viewBox="0 0 14 14" width="14" xmlns="http://www.w3.org/2000/svg" xmlns:xlink="http://www.w3.org/1999/xlink"><clipPath id="a"><path d="m0 0h14v14h-14z"/></clipPath><g clip-path="url(#a)"><path d="m7.48997 1.09001 1.59 3.21c.03616.08148.09305.15205.16499.20469.07194.05263.15641.0855.24501.09531l3.51003.52c.1016.01306.1974.05477.2762.12026.0788.06548.1374.15204.1689.24955.0314.09752.0345.20198.0088.30117-.0257.0992-.0791.18903-.1539.25902l-2.53 2.51c-.0646.06033-.1131.13584-.141.21968-.0279.08383-.0345.17332-.019.26032l.61 3.52999c.0176.1014.0065.2058-.0322.3012-.0388.0954-.1035.178-.1868.2384-.0834.0605-.182.0963-.2848.1034-.1027.0072-.2053-.0147-.2962-.063l-3.16003-1.67c-.08091-.0397-.16986-.0604-.26-.0604s-.17908.0207-.26.0604l-3.16 1.67c-.09091.0483-.19356.0702-.29627.063-.10271-.0071-.20136-.0429-.28471-.1034-.08336-.0604-.14808-.143-.1868-.2384s-.04988-.1998-.03222-.3012l.61-3.56999c.01546-.087.00892-.17649-.01902-.26032-.02795-.08384-.07641-.15935-.14098-.21968l-2.559998-2.47c-.075737-.0719-.129-.16423-.153336-.26578-.024336-.10156-.0187-.208.016223-.30642.034924-.09842.097637-.1846.180544-.24811.082907-.0635.182449-.10161.286569-.10969l3.509998-.52c.0886-.00981.17308-.04268.24502-.09531.07193-.05264.12882-.12321.16498-.20469l1.59-3.21c.0433-.09349.11244-.172643.19927-.228115.08682-.055472.1877-.084948.29073-.084948s.20391.029476.29074.084948c.08682.055472.15596.134625.19926.228115z" stroke="#000001" stroke-linecap="round" stroke-linejoin="round"/></g></svg>