<svg fill="none" height="48" viewBox="0 0 48 48" width="48" xmlns="http://www.w3.org/2000/svg"><path d="m0 0h48v48h-48z" fill="#fff" fill-opacity=".01"/><path d="m34 6h-20c-4.41828 0-8 3.58172-8 8v20c0 4.4183 3.58172 8 8 8h20c4.4183 0 8-3.5817 8-8v-20c0-4.41828-3.5817-8-8-8z" fill="#2f88ff" stroke="#000" stroke-linejoin="round" stroke-width="4"/><path d="m24 32c4.4183 0 8-3.5817 8-8s-3.5817-8-8-8-8 3.5817-8 8 3.5817 8 8 8z" fill="#43ccf8" stroke="#fff" stroke-linejoin="round" stroke-width="4"/><path d="m35 15c1.1046 0 2-.8954 2-2s-.8954-2-2-2-2 .8954-2 2 .8954 2 2 2z" fill="#fff"/></svg>